<svg width="665" height="104" viewBox="0 0 665 104" fill="none" xmlns="http://www.w3.org/2000/svg">
<path d="M25.4564 102.682H0L33.0646 6.30588H64.598L97.6625 102.682H72.2062L49.1901 30.5882H48.4245L25.4564 102.682ZM22.059 64.7529H75.2686V82.4471H22.059V64.7529Z" fill="white"/>
<path d="M108.214 102.682V6.30588H148.695C156.032 6.30588 162.364 7.71765 167.692 10.5412C173.051 13.3333 177.182 17.2392 180.085 22.2588C182.988 27.2471 184.439 33.051 184.439 39.6706C184.439 46.3216 182.956 52.1412 179.989 57.1294C177.054 62.0863 172.859 65.9294 167.404 68.6588C161.949 71.3882 155.474 72.7529 147.977 72.7529H122.999V54.4H143.575C147.148 54.4 150.13 53.7882 152.523 52.5647C154.947 51.3412 156.782 49.6314 158.026 47.4353C159.27 45.2078 159.892 42.6196 159.892 39.6706C159.892 36.6902 159.27 34.1176 158.026 31.9529C156.782 29.7569 154.947 28.0627 152.523 26.8706C150.099 25.6784 147.116 25.0824 143.575 25.0824H131.899V102.682H108.214Z" fill="white"/>
<path d="M196.115 102.682V30.4H219.513V102.682H196.115ZM207.838 21.9765C204.552 21.9765 201.729 20.9098 199.368 18.7765C197.008 16.6118 195.827 14.0078 195.827 10.9647C195.827 7.95294 197.008 5.38039 199.368 3.24706C201.729 1.08235 204.552 0 207.838 0C211.156 0 213.979 1.08235 216.307 3.24706C218.668 5.38039 219.848 7.95294 219.848 10.9647C219.848 14.0078 218.668 16.6118 216.307 18.7765C213.979 20.9098 211.156 21.9765 207.838 21.9765Z" fill="white"/>
<path d="M323.361 41.2235H299.435C299.116 38.8078 298.462 36.6274 297.474 34.6823C296.485 32.7373 295.177 31.0745 293.55 29.6941C291.923 28.3137 289.993 27.2627 287.76 26.5412C285.559 25.7882 283.118 25.4118 280.439 25.4118C275.686 25.4118 271.587 26.5569 268.141 28.8471C264.728 31.1373 262.096 34.4471 260.246 38.7765C258.428 43.1059 257.519 48.3451 257.519 54.4941C257.519 60.8941 258.444 66.2588 260.294 70.5882C262.176 74.8863 264.808 78.1333 268.189 80.3294C271.602 82.4941 275.638 83.5765 280.295 83.5765C282.911 83.5765 285.288 83.2471 287.425 82.5882C289.594 81.9294 291.492 80.9725 293.119 79.7176C294.778 78.4314 296.134 76.8784 297.186 75.0588C298.271 73.2078 299.021 71.1216 299.435 68.8L323.361 68.9412C322.946 73.2078 321.686 77.4118 319.58 81.5529C317.507 85.6941 314.652 89.4745 311.015 92.8941C307.379 96.2823 302.944 98.9804 297.713 100.988C292.513 102.996 286.548 104 279.817 104C270.949 104 263.005 102.086 255.987 98.2588C249.001 94.4 243.482 88.7843 239.431 81.4118C235.38 74.0392 233.354 65.0667 233.354 54.4941C233.354 43.8902 235.412 34.902 239.527 27.5294C243.642 20.1569 249.209 14.5569 256.227 10.7294C263.245 6.90196 271.108 4.98824 279.817 4.98824C285.75 4.98824 291.237 5.80392 296.277 7.4353C301.318 9.03529 305.752 11.3882 309.58 14.4941C313.408 17.5686 316.518 21.349 318.911 25.8353C321.303 30.3216 322.786 35.451 323.361 41.2235Z" fill="white"/>
<path d="M429.409 54.4941C429.409 65.098 427.335 74.0863 423.188 81.4588C419.041 88.8314 413.427 94.4314 406.345 98.2588C399.295 102.086 391.384 104 382.611 104C373.807 104 365.88 102.071 358.83 98.2118C351.78 94.3529 346.181 88.7529 342.034 81.4118C337.919 74.0392 335.861 65.0667 335.861 54.4941C335.861 43.8902 337.919 34.902 342.034 27.5294C346.181 20.1569 351.78 14.5569 358.83 10.7294C365.88 6.90196 373.807 4.98824 382.611 4.98824C391.384 4.98824 399.295 6.90196 406.345 10.7294C413.427 14.5569 419.041 20.1569 423.188 27.5294C427.335 34.902 429.409 43.8902 429.409 54.4941ZM405.197 54.4941C405.197 48.2196 404.287 42.9176 402.469 38.5882C400.683 34.2588 398.099 30.9804 394.717 28.7529C391.368 26.5255 387.332 25.4118 382.611 25.4118C377.922 25.4118 373.887 26.5255 370.505 28.7529C367.124 30.9804 364.524 34.2588 362.706 38.5882C360.919 42.9176 360.026 48.2196 360.026 54.4941C360.026 60.7686 360.919 66.0706 362.706 70.4C364.524 74.7294 367.124 78.0078 370.505 80.2353C373.887 82.4627 377.922 83.5765 382.611 83.5765C387.332 83.5765 391.368 82.4627 394.717 80.2353C398.099 78.0078 400.683 74.7294 402.469 70.4C404.287 66.0706 405.197 60.7686 405.197 54.4941Z" fill="white"/>
<path d="M443.238 102.682V6.30588H466.924V83.7647H507.692V102.682H443.238Z" fill="white"/>
<path d="M519.954 102.682V6.30588H543.64V83.7647H584.408V102.682H519.954Z" fill="white"/>
<path d="M596.67 102.682V6.30588H665V25.2235H620.356V44.9882H661.507V63.9529H620.356V83.7647H665V102.682H596.67Z" fill="white"/>
</svg>
